# xmcd
#
# Track frame offsets:
#	150
#	13128
#	29690
#	39724
#	48249
#	59006
#	72368
#	81971
#	94998
#	101047
#	114360
#	124915
#	137611
#	148356
#	160243
#
# Disc length: 2308 seconds
#
# Revision: 1
# Processed by: cddbd v1.5.2PL0 Copyright (c) Steve Scherf et al.
# Submitted via: audiograbber 1.83.01
#
DISCID=e209020f
DTITLE=Various Artist - Gold Country CD1
DYEAR=2006
DGENRE=Country
TTITLE0=Willie Nelson - Home is Where You're Happy
TTITLE1=Rex Allen jr. - Memory Train
TTITLE2=Waylon Jennings - White Lightning
TTITLE3=Johnny Cash - A Boy Named Sue
TTITLE4=Don Gibson - Oh Lonesome Me
TTITLE5=Hank Williams - Jambalaya
TTITLE6=Dave Dudley - Six Days on the Road
TTITLE7=Johnny Cash - Wanted Man
TTITLE8=Nashville 10 - Singing my Song
TTITLE9=Tex Williams - Smoke, Smoke, Smoke
TTITLE10=Willie Nelson - No Tomorrow in Sight
TTITLE11=Frankie Laine - High Noon
TTITLE12=Ricky Nelson - Travelin' Man
TTITLE13=Ernest Tubb - Walking the Floor Over You
TTITLE14=The Statler Brothers - Do you Remember These
EXTD=Disk 1 of 2
EXTT0=
EXTT1=
EXTT2=
EXTT3=
EXTT4=
EXTT5=
EXTT6=
EXTT7=
EXTT8=
EXTT9=
EXTT10=
EXTT11=
EXTT12=
EXTT13=
EXTT14=
PLAYORDER=
